<?xml version="1.0" encoding="UTF-8"?>
<svg id="meteor" xmlns="http://www.w3.org/2000/svg" viewBox="0 0 4115.39 605.69">
  <defs>
    <style>
      .cls-1 {
        stroke: #257eba;
      }

      .cls-1, .cls-2 {
        fill: none;
        stroke-linecap: round;
        stroke-linejoin: round;
        stroke-width: 66.67px;
      }

      .cls-2, .cls-3 {
        stroke: #fff;
      }

      .cls-3 {
        fill: #fff;
        stroke-miterlimit: 10;
        stroke-width: 5px;
      }
    </style>
  </defs>
  <path id="secondary" class="cls-1" d="m1841.61,87l47-47.33m141.33,235.67l47.33-47m6.33-195l-116.67,116.67"/>
  <circle id="primary" class="cls-2" cx="1766.94" cy="350" r="133.33"/>
  <g>
    <path class="cls-3" d="m242.69,246.14h-69.98v230.04c0,13.25-2.95,23.08-8.86,29.48-5.91,6.41-13.54,9.61-22.9,9.61s-17.25-3.24-23.22-9.72c-5.98-6.48-8.96-16.27-8.96-29.38v-230.04H38.79c-10.95,0-19.08-2.41-24.41-7.24-5.33-4.82-7.99-11.2-7.99-19.12s2.77-14.69,8.32-19.44c5.54-4.75,13.57-7.13,24.08-7.13h203.9c11.09,0,19.33,2.45,24.73,7.34,5.4,4.9,8.1,11.31,8.1,19.22s-2.74,14.29-8.21,19.12c-5.47,4.83-13.68,7.24-24.62,7.24Z"/>
    <path class="cls-3" d="m367.06,226.7v90.72h138.46v-90.72c0-12.96,2.92-22.68,8.75-29.16,5.83-6.48,13.5-9.72,23-9.72s17.46,3.21,23.44,9.61c5.97,6.41,8.96,16.17,8.96,29.27v249.48c0,13.11-3.02,22.9-9.07,29.38-6.05,6.48-13.82,9.72-23.33,9.72s-17.35-3.28-23.11-9.83c-5.76-6.55-8.64-16.31-8.64-29.27v-106.49h-138.46v106.49c0,13.11-3.02,22.9-9.07,29.38-6.05,6.48-13.82,9.72-23.33,9.72s-17.35-3.28-23.11-9.83c-5.76-6.55-8.64-16.31-8.64-29.27v-249.48c0-12.96,2.84-22.68,8.53-29.16,5.69-6.48,13.43-9.72,23.22-9.72s17.46,3.21,23.44,9.61c5.97,6.41,8.96,16.17,8.96,29.27Z"/>
    <path class="cls-3" d="m836.17,242.69h-144.5v77.76h133.06c9.79,0,17.1,2.2,21.92,6.59,4.82,4.39,7.24,10.19,7.24,17.39s-2.38,13.07-7.13,17.6-12.1,6.8-22.03,6.8h-133.06v90.07h149.47c10.08,0,17.67,2.34,22.79,7.02,5.11,4.68,7.67,10.91,7.67,18.68s-2.56,13.57-7.67,18.25c-5.11,4.68-12.71,7.02-22.79,7.02h-174.31c-13.97,0-24.01-3.09-30.13-9.29-6.12-6.19-9.18-16.2-9.18-30.02v-238.03c0-9.21,1.37-16.74,4.1-22.57,2.73-5.83,7.02-10.08,12.85-12.74,5.83-2.66,13.28-4,22.36-4h169.34c10.22,0,17.82,2.27,22.79,6.8,4.97,4.54,7.45,10.48,7.45,17.82s-2.48,13.5-7.45,18.04c-4.97,4.54-12.57,6.8-22.79,6.8Z"/>
    <path class="cls-3" d="m1094.64,226.27l123.34,186.62v-188.35c0-12.24,2.63-21.42,7.88-27.54,5.25-6.12,12.35-9.18,21.28-9.18s16.49,3.06,21.82,9.18c5.33,6.12,7.99,15.3,7.99,27.54v249.05c0,27.79-11.52,41.69-34.56,41.69-5.76,0-10.94-.83-15.55-2.48-4.61-1.66-8.93-4.28-12.96-7.88-4.03-3.6-7.78-7.81-11.23-12.64-3.46-4.82-6.91-9.75-10.37-14.8l-120.31-184.46v185.54c0,12.1-2.81,21.24-8.42,27.43-5.62,6.19-12.82,9.29-21.6,9.29s-16.34-3.13-21.82-9.4c-5.47-6.26-8.21-15.37-8.21-27.32v-244.29c0-10.37,1.15-18.5,3.46-24.41,2.73-6.48,7.27-11.77,13.61-15.88,6.33-4.1,13.18-6.16,20.52-6.16,5.76,0,10.69.94,14.8,2.81,4.1,1.87,7.7,4.39,10.8,7.56,3.09,3.17,6.26,7.27,9.5,12.31,3.24,5.04,6.59,10.3,10.04,15.77Z"/>
    <path class="cls-3" d="m1544.74,242.69h-144.5v77.76h133.06c9.79,0,17.1,2.2,21.92,6.59,4.82,4.39,7.24,10.19,7.24,17.39s-2.38,13.07-7.13,17.6-12.1,6.8-22.03,6.8h-133.06v90.07h149.47c10.08,0,17.67,2.34,22.79,7.02,5.11,4.68,7.67,10.91,7.67,18.68s-2.56,13.57-7.67,18.25c-5.11,4.68-12.71,7.02-22.79,7.02h-174.31c-13.97,0-24.01-3.09-30.13-9.29-6.12-6.19-9.18-16.2-9.18-30.02v-238.03c0-9.21,1.37-16.74,4.1-22.57,2.73-5.83,7.02-10.08,12.85-12.74,5.83-2.66,13.28-4,22.36-4h169.34c10.22,0,17.82,2.27,22.79,6.8,4.97,4.54,7.45,10.48,7.45,17.82s-2.48,13.5-7.45,18.04c-4.97,4.54-12.57,6.8-22.79,6.8Z"/>
  </g>
  <g>
    <path class="cls-3" d="m2415.87,458.51l-51.19-189.86-51.84,189.86c-4.03,14.4-7.24,24.73-9.61,31-2.38,6.26-6.52,11.88-12.42,16.85-5.91,4.97-13.75,7.45-23.54,7.45-7.92,0-14.44-1.48-19.55-4.43-5.11-2.95-9.25-7.13-12.42-12.53-3.17-5.4-5.76-11.81-7.78-19.22-2.02-7.42-3.82-14.29-5.4-20.63l-52.7-213.19c-3.17-12.38-4.75-21.82-4.75-28.3,0-8.21,2.88-15.12,8.64-20.74,5.76-5.62,12.89-8.42,21.38-8.42,11.66,0,19.51,3.75,23.54,11.23,4.03,7.49,7.56,18.36,10.58,32.62l41.47,184.9,46.44-173.02c3.46-13.25,6.55-23.33,9.29-30.24,2.73-6.91,7.2-12.89,13.39-17.93,6.19-5.04,14.61-7.56,25.27-7.56s19.19,2.63,25.16,7.88c5.97,5.26,10.11,10.98,12.42,17.17,2.3,6.19,5.4,16.42,9.29,30.67l46.87,173.02,41.47-184.9c2.01-9.65,3.92-17.21,5.72-22.68,1.8-5.47,4.89-10.37,9.29-14.69,4.39-4.32,10.76-6.48,19.12-6.48s15.44,2.77,21.28,8.32c5.83,5.54,8.75,12.49,8.75,20.84,0,5.91-1.59,15.34-4.75,28.3l-52.7,213.19c-3.6,14.4-6.59,24.95-8.96,31.64-2.38,6.7-6.41,12.56-12.1,17.6-5.69,5.04-13.72,7.56-24.08,7.56-9.79,0-17.64-2.45-23.54-7.34-5.91-4.89-10.01-10.4-12.31-16.52-2.31-6.12-5.55-16.59-9.72-31.43Z"/>
    <path class="cls-3" d="m2804.19,241.21h-144.5v77.76h133.06c9.79,0,17.1,2.2,21.92,6.59,4.82,4.39,7.24,10.19,7.24,17.39s-2.38,13.07-7.13,17.6-12.1,6.8-22.03,6.8h-133.06v90.07h149.47c10.08,0,17.67,2.34,22.79,7.02,5.11,4.68,7.67,10.91,7.67,18.68s-2.56,13.57-7.67,18.25c-5.11,4.68-12.71,7.02-22.79,7.02h-174.31c-13.97,0-24.01-3.09-30.13-9.29-6.12-6.19-9.18-16.2-9.18-30.02v-238.03c0-9.21,1.37-16.74,4.1-22.57,2.73-5.83,7.02-10.08,12.85-12.74,5.83-2.66,13.28-4,22.36-4h169.34c10.22,0,17.82,2.27,22.79,6.8,4.97,4.54,7.45,10.48,7.45,17.82s-2.48,13.5-7.45,18.04c-4.97,4.54-12.57,6.8-22.79,6.8Z"/>
    <path class="cls-3" d="m3014.75,508.4h-96.77c-13.97,0-23.94-3.13-29.92-9.4-5.98-6.26-8.96-16.23-8.96-29.92v-238.03c0-13.97,3.06-24.01,9.18-30.13,6.12-6.12,16.02-9.18,29.7-9.18h102.6c15.12,0,28.22.94,39.31,2.81,11.09,1.87,21.02,5.47,29.81,10.8,7.49,4.47,14.11,10.12,19.87,16.96,5.76,6.84,10.15,14.4,13.18,22.68,3.02,8.28,4.54,17.03,4.54,26.24,0,31.68-15.84,54.86-47.52,69.55,41.61,13.25,62.42,39.03,62.42,77.33,0,17.71-4.54,33.66-13.61,47.84-9.07,14.19-21.31,24.66-36.72,31.43-9.65,4.03-20.74,6.88-33.26,8.53-12.53,1.66-27.15,2.48-43.85,2.48Zm-71.5-268.49v81.86h58.75c15.98,0,28.33-1.51,37.04-4.54,8.71-3.02,15.37-8.78,19.98-17.28,3.6-6.05,5.4-12.82,5.4-20.3,0-15.98-5.69-26.6-17.06-31.86-11.38-5.25-28.73-7.88-52.06-7.88h-52.06Zm66.74,127.87h-66.74v92.45h68.9c43.34,0,65.02-15.62,65.02-46.87,0-15.98-5.62-27.57-16.85-34.78-11.23-7.2-28.01-10.8-50.33-10.8Z"/>
    <path class="cls-3" d="m3427.26,413.36c0,19.15-4.93,36.36-14.8,51.62-9.87,15.27-24.3,27.22-43.31,35.86-19.01,8.64-41.55,12.96-67.61,12.96-31.25,0-57.02-5.9-77.33-17.71-14.4-8.5-26.1-19.83-35.1-34.02-9-14.18-13.5-27.97-13.5-41.36,0-7.78,2.7-14.43,8.1-19.98,5.4-5.54,12.27-8.32,20.63-8.32,6.77,0,12.49,2.16,17.17,6.48,4.68,4.32,8.67,10.73,11.99,19.22,4.03,10.08,8.39,18.5,13.07,25.27,4.68,6.77,11.27,12.35,19.76,16.74,8.5,4.39,19.66,6.59,33.48,6.59,19.01,0,34.45-4.43,46.33-13.28,11.88-8.86,17.82-19.91,17.82-33.16,0-10.51-3.21-19.04-9.61-25.6-6.41-6.55-14.69-11.56-24.84-15.01-10.15-3.46-23.73-7.13-40.72-11.02-22.75-5.33-41.8-11.56-57.13-18.68-15.34-7.13-27.51-16.85-36.5-29.16-9-12.31-13.5-27.61-13.5-45.9s4.75-32.9,14.26-46.44c9.5-13.53,23.25-23.94,41.26-31.21,18-7.27,39.17-10.91,63.5-10.91,19.44,0,36.25,2.41,50.44,7.24,14.18,4.83,25.95,11.23,35.32,19.22,9.36,7.99,16.2,16.38,20.52,25.16,4.32,8.79,6.48,17.35,6.48,25.7,0,7.63-2.7,14.51-8.1,20.63-5.4,6.12-12.13,9.18-20.2,9.18-7.34,0-12.93-1.84-16.74-5.51-3.82-3.67-7.96-9.68-12.42-18.04-5.76-11.95-12.67-21.28-20.74-27.97-8.07-6.7-21.03-10.04-38.88-10.04-16.56,0-29.92,3.64-40.07,10.91-10.15,7.27-15.23,16.02-15.23,26.24,0,6.34,1.73,11.81,5.18,16.42,3.46,4.61,8.21,8.57,14.26,11.88,6.05,3.31,12.17,5.91,18.36,7.78,6.19,1.87,16.42,4.61,30.67,8.21,17.85,4.18,34.02,8.79,48.49,13.82,14.47,5.04,26.78,11.16,36.94,18.36,10.15,7.2,18.07,16.31,23.76,27.32,5.69,11.02,8.53,24.52,8.53,40.5Z"/>
    <path class="cls-3" d="m3473.23,474.7v-249.48c0-12.96,2.95-22.68,8.86-29.16,5.9-6.48,13.53-9.72,22.9-9.72s17.46,3.21,23.44,9.61c5.97,6.41,8.96,16.17,8.96,29.27v249.48c0,13.11-2.99,22.9-8.96,29.38-5.98,6.48-13.79,9.72-23.44,9.72s-16.81-3.28-22.79-9.83c-5.98-6.55-8.96-16.31-8.96-29.27Z"/>
    <path class="cls-3" d="m3803.67,244.67h-69.98v230.04c0,13.25-2.95,23.08-8.86,29.48-5.91,6.41-13.54,9.61-22.9,9.61s-17.25-3.24-23.22-9.72c-5.98-6.48-8.96-16.27-8.96-29.38v-230.04h-69.98c-10.95,0-19.08-2.41-24.41-7.24-5.33-4.82-7.99-11.2-7.99-19.12s2.77-14.69,8.32-19.44c5.54-4.75,13.57-7.13,24.08-7.13h203.9c11.09,0,19.33,2.45,24.73,7.34,5.4,4.9,8.1,11.31,8.1,19.22s-2.74,14.29-8.21,19.12c-5.47,4.83-13.68,7.24-24.62,7.24Z"/>
    <path class="cls-3" d="m4072.11,241.21h-144.5v77.76h133.06c9.79,0,17.1,2.2,21.92,6.59,4.82,4.39,7.24,10.19,7.24,17.39s-2.38,13.07-7.13,17.6-12.1,6.8-22.03,6.8h-133.06v90.07h149.47c10.08,0,17.67,2.34,22.79,7.02,5.11,4.68,7.67,10.91,7.67,18.68s-2.56,13.57-7.67,18.25c-5.11,4.68-12.71,7.02-22.79,7.02h-174.31c-13.97,0-24.01-3.09-30.13-9.29-6.12-6.19-9.18-16.2-9.18-30.02v-238.03c0-9.21,1.37-16.74,4.1-22.57,2.73-5.83,7.02-10.08,12.85-12.74,5.83-2.66,13.28-4,22.36-4h169.34c10.22,0,17.82,2.27,22.79,6.8,4.97,4.54,7.45,10.48,7.45,17.82s-2.48,13.5-7.45,18.04c-4.97,4.54-12.57,6.8-22.79,6.8Z"/>
  </g>
</svg>